# xmcd
#
# Track frame offsets: 
#        150
#        14811
#        28221
#        43028
#        63515
#        81658
#        95575
#        114334
#        127027
#        138245
#        151512
#        168532
#        185468
#        197546
#        217317
#
# Disc length: 3077 seconds
#
# Revision: 0
# Processed by: cddbd v1.5.2PL0 Copyright (c) Steve Scherf et al.
# Submitted via: ExactAudioCopy v0.95b4
#
DISCID=dc0c030f
DTITLE=Shrimp City Slim (Gary Erwin) - Dark Road Piano
DYEAR=2005
DGENRE=Blues
TTITLE0=Buy My Music While I'm Still Alive
TTITLE1=Broom and Hose
TTITLE2=Go Back To New Orleans
TTITLE3=Dark Road
TTITLE4=Places I Can't Go No More
TTITLE5=(We Should Be) Naked
TTITLE6=Just Space Between Us
TTITLE7=Depart-Arrive
TTITLE8=Esta Casa Azul
TTITLE9=Enjoy The Ride
TTITLE10=I Need A New Emotion
TTITLE11=Home and High
TTITLE12=Oaks
TTITLE13=Say Goodbye To Charleston
TTITLE14=Hawke's March
EXTD=
EXTT0=
EXTT1=
EXTT2=
EXTT3=
EXTT4=
EXTT5=
EXTT6=
EXTT7=
EXTT8=
EXTT9=
EXTT10=
EXTT11=
EXTT12=
EXTT13=
EXTT14=
PLAYORDER=
